<?xml version="1.0" encoding="utf-8"?>
<!-- Generator: Adobe Illustrator 22.0.1, SVG Export Plug-In . SVG Version: 6.00 Build 0)  -->
<svg version="1.1" id="圖層_1" xmlns="http://www.w3.org/2000/svg" xmlns:xlink="http://www.w3.org/1999/xlink" x="0px" y="0px"
	 viewBox="0 0 1802 420" style="enable-background:new 0 0 1802 420;" xml:space="preserve">
<style type="text/css">
	.st0{fill:#FDFDFD;}
	.st1{fill:#2E302F;}
	.st2{fill:#FEFEFE;}
	.st3{fill:#D14858;}
	.st4{fill:#C20D23;}
	.st5{fill:#010101;}
	.st6{fill:#1068AB;}
</style>
<g>
	<path class="st0" d="M518.8,1.5c426.2,0,852.5,0,1278.7-0.1c3.6,0,4.2,0.9,4.2,4.3c-0.1,136.3-0.1,272.6,0,408.9
		c0,3.5-0.7,4.2-4.2,4.2c-597.6-0.1-1195.2-0.1-1792.7,0c-3.3,0-4.4-0.7-4-4c0.3-2.7,0.1-5.5,0.1-8.2c0.5-0.3,0.9-0.2,1.3,0.1
		c1,1.2,1.5,2.8,2.5,4.1c3.3,4.4,7.8,6.5,13.3,5.5c5.5-1,9-4.5,10.3-9.9c0.9-3.8,1.1-7.7,1.1-11.6c0-107.1,0-214.3,0-321.4
		c0-2.2-0.2-4.4,0.3-6.5c0.4-1.9,1.4-2.4,3-0.9c1.3,1.2,2.2,2.7,3.3,4c34.3,45.7,68.8,91.3,103.2,137
		c40.1,53.2,80.2,106.3,120.3,159.5c9.3,12.4,18.6,24.8,28,37.1c3.8,5,8.9,6.3,14.7,4.7c5.7-1.5,8.4-5.8,9.4-11.3
		c0.3-1.4,0.1-2.9,0.2-4.3c0.1-7-0.1-13.9,0.1-20.9c0-1.6-0.3-3.6,1.4-4.2c1.7-0.6,2.8,1.2,3.7,2.5c8.2,10.7,16.4,21.4,23.9,32.6
		c5.3,7.8,11.8,11.7,21.7,11.6c49.4-0.3,98.8-0.5,148.2,0c16.5,0.2,31.9-3.2,47-9.1c20.1-7.8,37.8-19.4,53.2-34.5
		c19.5-19.3,33.3-42.2,42.3-68c8.3-23.8,12.6-48.4,14.1-73.5c0.8-13.2,1.2-26.4,0.5-39.5c-1.5-28.7-7.9-56.4-19.4-82.9
		c-10.1-23.2-24.3-43.5-42.9-60.5c-20.4-18.7-44.4-31.3-70.9-39c-4.2-1.2-8.4-2.3-12.6-3.4C520.7,3.4,518.9,3.6,518.8,1.5z"/>
	<path class="st1" d="M518.8,1.5c10,3.1,20.2,5.3,30,9.1c55.8,21.3,90.8,61.8,108.9,117.8c10.3,31.9,12.7,64.8,10.8,98.1
		c-1.8,29.9-6.6,59.2-18.4,86.9c-21.2,50.1-57.2,83.9-110.2,98.6c-8.2,2.3-16.6,3.4-25.3,3.4c-51.4-0.1-102.8-0.1-154.2,0
		c-8.5,0-14.4-3.4-19.2-10.3c-8.9-12.8-18.4-25.2-28.7-37.5c0,8.4,0,16.8,0,25.3c-2.7-1.9-3.5-5.1-5.4-7.6c-7-9.2-14.1-18.3-21-27.6
		c-1.5-2-2.9-4-3.7-6.4c-0.8-6.1-0.4-12.2-0.3-18.2c0.1-4-1.1-7.2-3.5-10.4c-21.3-28.5-42.6-57.1-63.9-85.7
		c-39-52.4-78-104.7-117-157.2C85.4,62.9,72.6,46.3,60.3,29.2c-1.6-2.2-3.2-4.4-3.3-7.4c-0.1-3.4,1.3-6,4.3-7.5
		c3.1-1.5,6.2-1.3,9,0.9c1.7,1.4,3,3.1,4.3,4.8c45.3,60.5,90.3,121.3,135.5,181.9c23.1,31,46.3,62,69.2,93.1
		c0.7,0.9,1.3,1.9,2.3,2.9c0.9-1.5,0.5-2.9,0.5-4.3c0-81.4,0-162.8,0-244.2c0-1.2,0-2.3,0-3.5c0-2.1-0.9-3.2-3.1-3.3
		c-1.4,0-2.9,0-4.3,0c-48.4,0-96.7,0-145.1,0c-3.5,0-6.9-0.2-10.3-1.3c-14-4.8-18.8-21.9-9.5-33.4c3.3-4.1,7.7-5.8,12.7-6.4
		C254.6,1.5,386.7,1.5,518.8,1.5z"/>
	<path class="st2" d="M122.5,1.5c-3,1.3-6.2,2.2-8.8,4.2c-6.7,5.3-9.3,14.1-6.6,22.3c2.7,8,10.1,13.3,18.9,13.3
		c50.7,0,101.4,0.1,152.1-0.1c4.3,0,5.7,0.8,5.7,5.5c-0.2,83.3-0.1,166.5-0.1,249.8c0,1.5,0,3.1,0,5.8c-1.7-2-2.6-3.1-3.4-4.1
		C211.2,205.4,142.1,112.6,73,19.7c-0.2-0.2-0.3-0.5-0.5-0.7c-3.7-4.9-8.1-6.1-11.7-3.3c-3.6,2.8-3.6,7.2,0.1,12.2
		c8.3,11.1,16.6,22.3,24.9,33.4c65.3,87.7,130.6,175.5,196,263.2c1.5,2,2.1,4,2.1,6.4c0,7.1,0.1,14.2,0.1,21.3
		c-2.5,0.1-3.3-2.1-4.5-3.7c-22.9-30.6-46-61-69-91.5c-27.4-36.4-54.9-72.8-82.3-109.2c-26-34.4-51.9-68.8-77.9-103.3
		c-7.3-9.7-15.2-19-21.9-29.2C21.7,5.3,8.2,3.9,2,17.2c-0.4,0.3-0.8,0.3-1.1,0c0-4.3,0.1-8.7,0-13C0.7,2.1,1.1,1.4,3.4,1.4
		c11,0.2,21.9,0.1,32.9,0.1C65,1.5,93.8,1.5,122.5,1.5z"/>
	<path class="st3" d="M0.8,17.2c0.3,0,0.5,0,0.8-0.1C3,18.2,3,19.8,3.1,21.4c0.1,1.4,0.1,2.9,0.1,4.3c0,124.1,0,248.2,0,372.3
		c0,2.9,0.9,6.1-1.6,8.7c-0.2-0.1-0.5-0.2-0.7-0.2C0.8,276.7,0.8,146.9,0.8,17.2z"/>
	<path class="st4" d="M1.5,406.8c0.1-1.9,0.2-3.8,0.2-5.6c0-127.5,0-254.9,0-382.4c0-0.6-0.1-1.2-0.1-1.7C3,11.2,6.8,7.8,12.6,6.7
		c6.1-1.2,11.1,0.9,14.8,5.9C42.8,33,58.2,53.5,73.6,73.9c69.1,91.6,138.1,183.2,207.2,274.7c0.9,1.3,2.1,2.4,3.1,3.6
		c7.6,11.3,16.3,21.7,24.3,32.7c1.8,2.5,3.4,5,4.4,7.9c0.6,8.4-2.7,14.1-9.6,16.5c-6.6,2.3-12.7,0.1-17.4-6.1
		C234.8,335.8,184,268.4,133.2,201.1c-33-43.8-66.1-87.6-99.1-131.4c-1-1.4-2.1-2.7-3.4-4.4c-1.3,1.7-0.7,3.5-0.7,5
		c0,109.2,0,218.4,0,327.6c0,2.2-0.1,4.3-0.3,6.5c-0.8,7.5-5.9,12.7-13.1,13.3C9.5,418.3,3.6,414,1.5,406.8z"/>
	<path d="M1340.1,238.1c13.7,9,18.9,24.4,29.1,37.6c-5.3,0-9.5,0.1-13.7,0c-1.5,0-1.9-1.6-2.6-2.7c-6-9-11.3-18.5-18-27
		c-4-5-9-7.5-15.4-7.2c-3,0.2-6.1,0.2-9.1,0c-2.9-0.2-3.9,0.5-3.9,3.7c0.2,9.8,0,19.7,0.2,29.5c0.1,3.1-0.8,3.9-3.9,3.9
		c-7.5-0.1-7.5,0-7.5-7.5c0-23.9,0.1-47.8-0.1-71.6c0-3.1,0.5-4.2,4-4.2c12,0.2,24,0.1,36,0.1c2,0,4.1,0.1,6.1,0.3
		c11.9,1.4,19.3,8.4,20.5,19.3c1.3,11.8-4.6,20.4-16.4,24.2C1343.6,237,1341.6,236.7,1340.1,238.1z"/>
	<path d="M932.1,346.7c0,1.5,0,3.1,0,4.6c0,18.1-0.1,36.2,0.1,54.3c0,2.8-0.5,4.1-3.7,4c-7.2-0.2-7.2,0-7.2-7.3
		c0-23.9,0.1-47.8-0.1-71.7c0-3.2,0.6-4.2,4.1-4.4c5.6-0.4,8.7,1.6,11.7,6.3c12.5,19.3,25.4,38.3,38.3,57.4c1.4-1,0.7-2.4,0.7-3.6
		c0.1-18.7,0.1-37.4,0-56c0-3.3,0.8-4.1,4-4c6.9,0.3,6.9,0.1,6.9,7.2c0,23.8-0.1,47.5,0.1,71.3c0,3.6-0.5,4.8-4.6,5
		c-5.3,0.2-8.2-1.7-11-6.1c-12-18.4-24.3-36.6-36.6-54.9c-0.5-0.8-1.1-1.6-1.7-2.4C932.7,346.6,932.4,346.6,932.1,346.7z"/>
	<path d="M875.9,257.2c0-20.6,0-40,0-59.3c0-1.7-1.1-4.5,0.8-5c2.8-0.8,6-0.3,9.1-0.1c0.9,0.1,0.6,1.5,0.6,2.3c0,26.1,0,52.1,0,78.2
		c0,1.8-0.4,2.4-2.4,2.6c-5.8,0.4-9.9-0.6-13.5-6.3c-12.2-19.4-25.3-38.3-38.2-57.5c-1.4,1-0.7,2.4-0.7,3.6
		c-0.1,18.8-0.1,37.6,0,56.5c0,3.1-0.9,3.9-3.9,3.8c-7.1-0.2-7.1,0-7.1-7.1c0-24,0.1-48.1-0.1-72.1c0-3.1,0.7-4,4-4.2
		c5.7-0.4,9,1.6,12.1,6.4c11.7,18.2,24,36.1,36,54.1C873.6,254,874.4,255.1,875.9,257.2z"/>
	<path d="M1431.5,210.8c0,20.9,0,40.6-0.1,60.2c0,1.5,1.2,4.1-1.1,4.5c-2.9,0.5-6,0.6-9-0.2c-0.4-0.1-0.5-1.5-0.5-2.4
		c0-25.9,0-51.8-0.1-77.8c0-2.1,0.5-3,2.6-2.6c0.1,0,0.3,0,0.4,0c6.1-1.2,9.8,1.3,13.2,6.7c11.7,18.4,24.1,36.4,36.3,54.5
		c0.5,0.8,0.8,1.8,2.3,2.1c0-1.5,0-2.9,0-4.2c0-18.5,0.1-37.1-0.1-55.6c0-2.9,0.8-3.6,3.6-3.5c7.4,0.1,7.4,0,7.4,7.2
		c0,23.9,0,47.8,0.1,71.7c0,3.1-0.5,4.3-4.1,4.6c-5.4,0.3-8.5-1.4-11.5-6c-11.8-18.3-24.1-36.4-36.3-54.5
		C1434,214.2,1433.1,213,1431.5,210.8z"/>
	<path d="M1566.4,233.1c4.8,0,9.6,0.1,14.3,0c2.4-0.1,3.3,0.5,3.3,3.1c-0.1,8.5-0.1,17.1,0,25.6c0,1.6-0.5,2.7-1.8,3.7
		c-16.9,12.1-34.8,15.7-54.2,6.6c-13.7-6.4-19.6-18.4-20.8-32.8c-1.3-15,2-28.9,13.8-39.4c12.1-10.7,35.3-12.1,49-3.5
		c6.5,4.1,9.9,10.2,12.2,17.3c0.5,1.7,0.3,2.4-1.5,2.6c-0.1,0-0.3,0.1-0.4,0.1c-6.9,2.3-6.9,2.3-10-4.1
		c-4.3-8.6-14.5-13.1-25.9-11.6c-16,2.2-25.1,13.1-25.8,31.2c-0.2,4.1,0.2,8.1,1.1,12.1c3.9,17.8,21.1,27,39.8,21.3
		c0.4-0.1,0.8-0.3,1.2-0.4c12-4,14-7.4,12.5-19.8c-0.3-2.4-1.6-1.9-3-1.9c-5.9,0-11.9-0.2-17.8,0.1c-3.2,0.2-4.1-1-3.6-3.9
		c0.1-0.8,0.1-1.7,0-2.6c-0.4-2.8,0.5-3.8,3.5-3.7C1556.8,233.3,1561.6,233.1,1566.4,233.1z"/>
	<path d="M1401.8,344.8c0,9.1,0,17,0,24.9c0,12-0.1,24,0.1,36.1c0,3-0.7,4.3-3.8,3.8c-0.8-0.1-1.8-0.1-2.6,0
		c-3.3,0.5-4.4-0.6-4.3-4.2c0.2-25,0.2-50.1,0-75.1c0-3.4,1.1-3.7,4.1-4c5.4-0.5,8.5,1.4,11.4,6c11.8,18.3,24.1,36.4,36.3,54.5
		c0.7,1.1,1.1,2.7,3,3.2c0-9.1,0-18,0-26.9c0-10.9,0.2-21.7-0.1-32.6c-0.1-3.6,1.1-4.2,4.3-4.1c6.3,0.2,6.3,0.1,6.3,6.4
		c0,24.2-0.1,48.4,0.1,72.5c0,3.8-1.2,4.2-4.6,4.5c-5.4,0.5-8.2-1.8-11-6c-11.9-18.3-24.2-36.4-36.3-54.5
		C1404.1,348.1,1403.3,347,1401.8,344.8z"/>
	<path d="M1096.8,257.3c0-21,0.1-40.7-0.1-60.4c0-3.6,0.8-5.1,4.4-4.4c1.1,0.2,2.3,0.2,3.5,0c2.4-0.3,2.9,0.8,2.8,3
		c-0.1,4.9,0,9.8,0,14.8c0,20.6-0.1,41.1,0.1,61.7c0,3.1-0.9,3.6-3.8,3.9c-5.6,0.6-8.7-1.5-11.8-6.2c-11.8-18.3-24.2-36.4-36.3-54.5
		c-0.7-1-1.5-2-2.9-3.9c0,4.9,0,8.8,0,12.6c0,15.9-0.1,31.9,0.1,47.8c0,3.5-1,4.3-4.3,4.2c-6.5-0.2-6.5,0-6.5-6.4
		c0-24.3,0.1-48.7-0.1-73c0-3.4,1-3.8,4.1-4c5.5-0.5,8.7,1.4,11.8,6.2C1070.2,218,1083.2,237.1,1096.8,257.3z"/>
	<path d="M966.5,233.1c4.8,0,9.6,0.1,14.3,0c2.1-0.1,3.1,0.3,3,2.8c-0.1,8.7-0.1,17.4,0,26.1c0,1.4-0.3,2.3-1.5,3.3
		c-14.2,12.5-38.3,15.5-55,6.6c-15.7-8.4-20.7-22.6-20.4-39.2c0.2-11.1,3.3-21.5,11-29.9c12.1-13.2,38-15.9,52.9-5.7
		c5.9,4,9.1,9.9,11.2,16.5c0.6,1.8,0.1,2.7-1.8,2.9c-0.7,0.1-1.4,0.3-2.1,0.6c-3.8,1.6-6,1.3-7.7-3.4c-3.6-9.8-14.3-14.6-26.7-12.8
		c-14.8,2.1-23.9,12.2-25.2,28c-0.3,4-0.3,8.1,0.2,12.1c3.3,24.6,25.4,28.8,40.7,24.2c1-0.3,1.9-0.7,2.8-1.1
		c10.7-4.2,12.8-8.3,10.6-19.5c-0.4-2.1-1.8-1.5-2.9-1.5c-6.1-0.1-12.2-0.2-18.2,0c-2.8,0.1-3.6-0.9-3.3-3.4c0.2-1.1,0.1-2.3,0-3.5
		c-0.3-2.4,0.6-3.3,3.1-3.2C956.6,233.2,961.5,233.1,966.5,233.1z"/>
	<path d="M902.5,367.7c-0.4,14.4-3.9,27-15.4,35.4c-13.1,9.6-27.7,10.8-42.2,3.9c-14.6-6.9-20.9-19.7-21.8-35.3
		c-0.7-12,1.2-23.5,9.2-33c10.7-12.8,24.8-16.1,40.3-12.6c15.8,3.5,24.9,14.3,28.6,29.8C902.2,360,902.2,364.2,902.5,367.7z"/>
	<path d="M738.8,234c0-12.4,0.1-24.9-0.1-37.3c0-3.1,0.5-4.2,3.9-4.2c17.5,0.2,35,0.3,52.5,0c4.6-0.1,3.8,2.4,3.9,5.1
		c0.1,2.8,0.5,5.1-4,5c-13.7-0.3-27.5,0-41.3-0.2c-3,0-4,0.8-3.9,3.8c0.2,5.6,0.3,11.3,0,16.9c-0.2,3.5,0.7,4.7,4.4,4.6
		c12.6-0.3,25.2,0,37.8-0.2c2.9,0,4.3,0.6,3.8,3.7c-0.2,1.1-0.2,2.3,0,3.5c0.3,2.6-0.8,3.1-3.2,3.1c-12.9-0.1-25.8,0.1-38.6-0.1
		c-3.6-0.1-4.3,1.1-4.2,4.4c0.2,6.6,0.2,13.3,0,20c-0.1,2.9,0.8,3.7,3.6,3.6c14.5-0.1,29,0.1,43.4-0.2c3.8-0.1,4.4,1.4,4,4.5
		c-0.3,2.7,1.4,6-4,5.9c-18.1-0.3-36.2-0.2-54.3,0c-3.1,0-4.2-0.6-4.2-4C739,259.2,738.8,246.6,738.8,234z"/>
	<path d="M1130.8,234.1c0-12.6,0.1-25.2-0.1-37.8c0-3.1,0.9-3.8,3.9-3.8c17.7,0.1,35.3,0.1,53,0c2.9,0,3.6,0.9,3.6,3.7
		c-0.1,6.3,0,6.3-6.1,6.3c-13.2,0-26.3,0.1-39.5-0.1c-2.6,0-3.6,0.5-3.5,3.3c0.2,6.2,0.2,12.5,0,18.7c-0.1,2.8,0.9,3.3,3.5,3.3
		c12.9-0.1,25.8,0.1,38.6-0.1c3.4-0.1,4.4,1,3.9,4.1c-0.1,0.8-0.1,1.8,0,2.6c0.4,2.8-0.7,3.6-3.5,3.6c-12.7-0.2-25.5,0.1-38.2-0.2
		c-3.4-0.1-4.4,0.8-4.3,4.3c0.3,6.4,0.3,12.7,0,19.1c-0.2,3.5,0.7,4.7,4.4,4.6c14-0.2,28.1,0.1,42.1-0.2c4.1-0.1,4.9,1.2,4.6,4.9
		c-0.2,3,0.6,5.7-4.4,5.6c-17.9-0.4-35.9-0.2-53.8-0.1c-3.5,0-4.3-1.1-4.2-4.4C1130.9,259,1130.8,246.5,1130.8,234.1z"/>
	<path d="M1213.2,233.6c0-12.3,0.1-24.6-0.1-36.9c0-3,0.3-4.2,3.9-4.2c17.5,0.2,35,0.2,52.6,0c3,0,4.3,0.7,3.8,3.8
		c-0.1,0.7-0.1,1.5,0,2.2c0.5,3.1-0.5,4.1-3.9,4.1c-13.6-0.2-27.2,0-40.8-0.2c-3.3,0-4.5,0.7-4.3,4.2c0.3,5.9,0.2,11.9,0,17.8
		c-0.1,2.8,0.8,3.3,3.4,3.3c12.9-0.1,25.8,0.2,38.7-0.2c4.8-0.1,3.8,2.6,3.8,5.2c0,2.6,0.9,5.3-3.8,5.2c-12.9-0.4-25.8,0-38.7-0.2
		c-2.7,0-3.5,0.6-3.4,3.3c0.2,7.1,0.2,14.2,0,21.3c-0.1,2.8,0.9,3.3,3.5,3.3c14.5-0.1,29,0.2,43.4-0.2c4.7-0.1,4.1,2.3,4.2,5.3
		c0.1,3.1,0.2,5.3-4.3,5.2c-18.1-0.3-36.2-0.2-54.3-0.1c-2.8,0-3.7-0.6-3.6-3.6C1213.3,259.3,1213.2,246.5,1213.2,233.6z"/>
	<path d="M1040.6,411c-6.1,0-12.1-0.8-17.8-3.3c-9.3-4-14.4-11.2-16.3-20.9c-0.6-3,0.1-4.7,3.6-4.5c1.3,0.1,2.6,0,3.9-0.2
		c2.3-0.5,3,0.6,3.4,2.6c1.5,8.6,7.2,13.1,15.3,15.1c6.9,1.7,13.7,1.6,20.4-1.1c5.3-2.2,8.6-6.1,8.7-11.8c0-5.5-3.5-8.9-8.5-10.9
		c-6.9-2.8-14.2-3.9-21.2-5.9c-4.2-1.2-8.3-2.4-12.1-4.6c-6.8-3.9-10.6-9.8-10.5-17.7c0.2-8.1,3.7-14.7,11-18.4
		c12.1-6.1,24.5-6,36.7-0.3c7.2,3.4,10.9,9.6,12.5,17.2c0.5,2.4,0.4,4.3-2.9,3.9c-0.6-0.1-1.2,0-1.7,0.2c-4.1,1.2-6.2,0.1-6.9-4.5
		c-0.6-3.6-3.1-6.6-6.5-8.2c-8.5-3.9-17.1-4-25.5,0.1c-4.1,2-6.2,5.6-5.9,10.3c0.3,4.4,3,7,6.9,8.6c7.5,3,15.6,4.1,23.4,6.4
		c3.2,0.9,6.3,1.9,9.3,3.4c15.7,8.1,17.1,28.6,2.5,38.7C1055.8,409.7,1048.4,411.2,1040.6,411z"/>
	<path d="M1370.6,409.6c-4.7,1.6-6.6-1.5-8.1-6c-1.7-5.5-4.1-10.8-6.1-16.2c-0.7-2.1-1.8-2.8-4.1-2.7c-9.6,0.1-19.1,0.1-28.7,0
		c-2.2,0-3.3,0.6-4,2.8c-2,6.2-4.5,12.2-6.5,18.3c-0.9,2.9-2.3,4-5.5,3.9c-7.9-0.2-7.9-0.1-5-7.7c9.2-24,18.5-47.9,27.6-71.9
		c1-2.6,2-3.8,5.1-3.8c8.4,0.2,8.4,0.1,11.6,7.9c9.4,23.1,18.9,46.2,28.3,69.3C1377.8,409.6,1377.8,409.6,1370.6,409.6z"/>
	<path d="M1157.8,358.2c-0.5,8.3,0.9,18.5-0.8,28.5c-2.4,14.1-10,21.7-24.2,23.8c-6.6,1-13.3,0.8-19.8-0.9
		c-11.6-3.1-18-10.7-19.7-23.1c-1.3-9.7-0.7-19.4-0.8-29.1c-0.1-9.4,0-18.8-0.1-28.2c0-2.3,0.6-2.9,2.9-2.9c8.5-0.1,8.5-0.2,8.5,8.1
		c0,13.6,0,27.2,0,40.8c0,0.7,0,1.4,0,2.2c0.1,19.4,13.4,28.5,31.8,21.8c8.1-3,10.2-9.7,10.7-17.2c1.1-15.9,0.3-31.8,0.5-47.8
		c0.1-8.1,0-8,7.9-7.9c2.4,0,3.2,0.6,3.1,3.1C1157.7,338.4,1157.8,347.4,1157.8,358.2z"/>
	<path d="M776.5,411.1c-24.6-0.3-37.8-12-41.2-33.1c-1.7-10.9-1.3-21.6,3.4-31.8c6.3-13.6,17.6-20,31.9-21.1
		c12.5-1,23.5,2.7,31,13.5c1.7,2.5,3.1,5.2,4,8.1c0.2,0.7,0.8,1.8,0.6,2c-2.5,2.2-5.9,1.8-8.8,2.9c-1.3,0.5-2.1,0.2-2.5-1.3
		c-4.1-13.5-16.4-17.2-27.5-15.1c-11.1,2-18.6,10.3-20.8,23.6c-1.4,8.5-0.9,17,1.8,25.3c3.8,11.5,12.8,17.5,25.6,17.3
		c10.3-0.2,18.8-6.8,21.9-17.8c0.8-2.9,1.6-3.2,4.4-2.5c8.6,2.4,8.7,2.2,4.8,10.4C798.6,405.1,787.4,411.1,776.5,411.1z"/>
	<path d="M1764.7,411c-21.6-0.3-35.5-13.3-37.8-35.6c-1.5-13.9,0.1-27.2,9.7-38.3c13.6-15.8,49.2-19.1,60.5,7.7
		c1.4,3.3,1.6,5.4-2.8,5.6c-1.3,0.1-2.6,0.4-3.8,0.9c-2.4,1-3.1,0-4-2.2c-4.2-10.1-11.1-14.8-21.3-14.6
		c-10.6,0.3-19.3,4.4-23.6,14.6c-5.2,12.4-5,25.1,0,37.6c4,9.8,13,14.8,24.8,14.5c9.4-0.3,17.6-6,20.6-15.8c1.5-4.9,3.5-5.2,7.7-3.9
		c5.5,1.8,5.5,1.5,3.5,6.9C1792.8,403.4,1780.9,411.3,1764.7,411z"/>
	<path d="M1512.2,373.2c0,10.9-0.1,21.7,0.1,32.6c0.1,3-0.7,3.9-3.8,3.9c-7.6-0.2-7.6,0-7.6-7.8c0-20.6-0.1-41.1,0.1-61.7
		c0-3.3-0.9-4.1-4.1-4c-6.6,0.3-13.3,0-20,0.1c-2.4,0.1-3.6-0.5-3.1-3.1c0.1-0.4,0.1-0.9,0-1.3c-0.8-4.3,0.7-5.7,5.4-5.7
		c18.8,0.3,37.6,0.3,56.5,0c4.5-0.1,4,2.2,4,5c-0.1,2.7,0.8,5.4-3.9,5.1c-6.8-0.5-13.6,0-20.4-0.2c-2.4-0.1-3.2,0.7-3.2,3.1
		C1512.3,350.6,1512.2,361.9,1512.2,373.2z"/>
	<path d="M1274.1,372.9c0,11-0.1,22,0.1,33c0,2.6-0.3,3.8-3.4,3.8c-7.8-0.1-7.8,0.1-7.8-7.7c0-20.6-0.1-41.1,0.1-61.6
		c0-3.1-0.5-4.3-4-4.1c-6.6,0.3-13.3,0-20,0.1c-2.5,0.1-3.9-0.4-3.4-3.3c0.2-1.1,0.2-2.3,0-3.5c-0.5-2.9,0.9-3.2,3.4-3.2
		c19.7,0.1,39.4,0.1,59,0c2.7,0,3.7,0.7,3.4,3.4c-0.2,1.1-0.2,2.3,0,3.5c0.3,2.6-0.8,3.2-3.2,3.1c-6.7-0.1-13.3,0.1-20-0.1
		c-3.2-0.1-4.4,0.6-4.4,4.2C1274.2,351.2,1274.1,362.1,1274.1,372.9z"/>
	<path class="st5" d="M1590.3,368.1c0-12.7,0.1-25.5-0.1-38.2c0-2.9,0.9-3.5,3.6-3.5c7.8,0.1,7.8,0,7.8,7.6
		c0,20.5,0.1,41.1-0.1,61.6c0,3.2,0.7,4.1,4,4c11-0.2,22,0,33-0.2c3.2-0.1,4.2,0.7,4,4c-0.3,6.1-0.1,6.1-5.9,6.1
		c-14.2,0-28.4-0.1-42.5,0.1c-3,0-3.9-0.7-3.9-3.8C1590.4,393.2,1590.3,380.6,1590.3,368.1z"/>
	<path class="st5" d="M1659.8,367.8c0-12.6,0.1-25.2,0-37.8c0-2.5,0.2-3.8,3.4-3.8c7.7,0.2,7.7,0,7.7,7.7c0,20.5,0.1,41.1-0.1,61.6
		c0,3.4,0.9,4,4.1,3.9c10.6-0.2,21.1,0.2,31.7-0.2c4.5-0.2,5.7,1.1,5.7,5.6c0,4.1-1.3,4.7-4.9,4.6c-11.1-0.2-22.3,0-33.4-0.1
		c-4.6-0.1-10.7,2-13.3-0.9c-2.3-2.5-0.7-8.5-0.7-13C1659.8,386.4,1659.8,377.1,1659.8,367.8z"/>
	<path class="st5" d="M1180.3,367.8c0-12.4,0.1-24.9-0.1-37.3c0-3.2,0.7-4.2,4-4.1c7.4,0.2,7.4,0,7.4,7.5c0,20.4,0.1,40.8-0.1,61.2
		c0,4,1.2,4.7,4.8,4.6c10.6-0.2,21.1,0.2,31.7-0.2c4.1-0.1,5.1,1.2,4.5,4.8c-0.1,0.8-0.1,1.7,0,2.6c0.2,2-0.5,2.8-2.6,2.8
		c-15.6-0.1-31.3-0.1-46.9,0c-3.1,0-2.7-1.8-2.7-3.7C1180.4,393.2,1180.3,380.5,1180.3,367.8z"/>
	<path class="st5" d="M1396.8,234.2c0,12.6-0.1,25.2,0.1,37.7c0,2.9-0.6,4-3.8,3.9c-7.3-0.2-7.3,0-7.3-7.3c0-24,0.1-48-0.1-72
		c0-3.3,0.8-4.2,4.1-4c7,0.2,7,0,7,7C1396.8,211,1396.8,222.6,1396.8,234.2z"/>
	<path class="st5" d="M1017.8,234c0,12.7-0.1,25.5,0.1,38.2c0,2.9-0.8,3.6-3.6,3.6c-7.8-0.1-7.8,0.1-7.8-7.7c0-23.7,0-47.5-0.1-71.2
		c0-3.1,0.4-4.6,4.1-4.4c7.3,0.3,7.3,0.1,7.3,7.2C1017.8,211.1,1017.8,222.5,1017.8,234z"/>
	<path class="st2" d="M353.3,208.8c0-54.2,0.1-108.3-0.1-162.5c0-4.3,1.2-5.1,5.3-5.1c46.2,0.2,92.4,0.5,138.6-0.1
		c18-0.3,34.2,4.5,50,12c39.3,18.8,62.1,51,74.2,91.8c8.1,27.1,9.3,54.9,7.4,83c-1.7,26.3-6.5,51.9-17.8,76
		c-16.8,35.8-43.6,59.9-82.3,70c-4.8,1.3-9.6,1.8-14.6,1.8c-50.3-0.1-100.5,0-150.8,0c-1.3,0-2.6,0-3.9,0c-6.1,0.3-6.1,0.3-6.1-5.6
		C353.3,316.3,353.3,262.6,353.3,208.8z"/>
	<path class="st2" d="M338,375.7c-4.5-6-8.4-12.4-13.5-17.8c-9.7-10.2-12.2-21.8-12.1-35.7c0.6-92,0.3-183.9,0.2-275.9
		c0-3.9,0.8-5.2,4.9-5c5.8,0.4,11.6,0.3,17.4,0c3.4-0.2,4.1,1.1,4,4.2c-0.2,8-0.1,15.9-0.1,23.9c0,100.4,0,200.7,0,301.1
		c0,1.6,0,3.2,0,4.8C338.5,375.3,338.2,375.5,338,375.7z"/>
	<path class="st2" d="M1323.3,201.9c4.4,0.2,9.6-0.3,14.8,0.4c7.5,1.1,12.3,6,12.3,12.7c0.1,6.7-4.6,12.2-11.8,13.3
		c-9.9,1.6-19.9,0.4-29.9,0.8c-1.9,0.1-2.1-1.1-2.1-2.5c0-7.4,0.1-14.7,0-22.1c0-2.2,0.9-2.7,2.8-2.6
		C1313.8,201.9,1318.1,201.9,1323.3,201.9z"/>
	<path class="st2" d="M890.9,367.3c0,10.8-2,20-9.5,27c-7.9,7.4-17.5,8.9-27.5,5.8c-10.4-3.3-16.3-11.1-18.5-21.6
		c-1.5-7-1.2-14.1,0.2-21.1c2.9-14,13.9-23,27.5-22.8c13.5,0.2,23.9,9.3,26.8,23.3C890.6,361.2,891,364.7,890.9,367.3z"/>
	<path class="st2" d="M1351.7,375.2c-1.7,0-2.9,0-4.2,0c-7.6,0-15.2,0-23.2,0c4.1-13,10-24.8,13.1-38.7
		C1342.3,349.9,1346.9,362.4,1351.7,375.2z"/>
	<path class="st6" d="M377.9,205.1c0-41.1,0-82.2,0-123.4c0-11.4,5.4-16.8,16.7-16.8c33.3,0,66.6,0.5,99.9-0.1
		c39.4-0.7,68.2,16.7,86,50.9c26.8,51.4,31.7,105.1,11,159.7c-13.1,34.6-37.8,57.9-74.1,67.9c-5.5,1.5-11,2.2-16.7,2.2
		c-35.3-0.1-70.7,0-106,0c-11.4,0-16.8-5.4-16.8-16.6C377.9,287.6,377.9,246.4,377.9,205.1z"/>
	<path class="st2" d="M406.7,204.9c0-35.6,0-71.3-0.1-106.9c0-3.4,0.8-4.3,4.3-4.3c28.7,0.1,57.4,0.3,86,0
		c24.2-0.2,42.2,10.2,55.1,30.3c11,17.2,16.8,36.4,20.3,56.3c5.2,29.6,3.1,58.6-8.4,86.5c-10.3,24.9-28.2,42-54.9,48.8
		c-2.4,0.6-4.8,0.9-7.3,0.9c-30.3,0-60.5-0.1-90.8,0.1c-3.5,0-4.2-1.1-4.2-4.4C406.7,276.5,406.7,240.7,406.7,204.9z"/>
</g>
</svg>
